#!OML:ASF I:\Actors\actors\Patient Classification 1\Patient 1\Session 1\Subject1.ASF
:FULLY-SPECIFIED
:DEGREES
1151
root 0.610749 17.4926 9.75283 11.4088 -8.47401 -9.73699
lowerback -2.6609 2.35488 6.50816
upperback -8.32652 3.34307 1.71133
thorax -6.98181 1.29628 -1.93739
lowerneck -13.2556 -3.44239 -1.66677
upperneck 31.2725 -6.91929 6.78878
head 12.9657 -2.40913 1.87443
rclavicle -2.68359e-015 -7.95139e-016
rhumerus 14.6023 42.7927 -59.6258
rradius 118.979
rwrist 4.65589
rhand 31.1694 -35.0845
rfingers 7.12502
rthumb 54.7551 -53.3989
lclavicle -2.68359e-015 -7.95139e-016
lhumerus -41.8724 -22.7111 98.4171
lradius 127.56
lwrist 16.3623
lhand -8.52068 -3.18377
lfingers 7.12502
lthumb 17.4078 26.0567
rfemur -3.77828 24.7939 25.305
rtibia 1.45208
rfoot -12.9245 -20.9686
rtoes 0.220058
lfemur 15.7223 -55.678 -21.8017
ltibia -4.44026
lfoot -64.9414 59.0651
ltoes 32.401
1152
root 0.609131 17.4933 9.75137 11.4233 -8.48999 -9.74214
lowerback -2.63746 2.39993 6.51514
upperback -8.34725 3.4039 1.65554
thorax -7.00938 1.32274 -2.00256
lowerneck -13.2292 -3.4965 -1.67687
upperneck 31.2442 -7.02612 6.88639
head 12.96 -2.44623 1.89774
rclavicle 2.35063e-014 3.06128e-014
rhumerus 14.1164 42.3071 -60.3563
rradius 118.985
rwrist 4.58978
rhand 30.6171 -34.9232
rfingers 7.12502
rthumb 54.2609 -53.5833
lclavicle 2.35063e-014 3.06128e-014
lhumerus -41.9002 -22.8115 98.5316
lradius 127.565
lwrist 16.3773
lhand -8.53531 -3.33656
lfingers 7.12502
lthumb 17.3937 25.9052
rfemur -3.81696 24.7558 25.3057
rtibia 1.47571
rfoot -12.8892 -20.9223
rtoes -0.0295778
lfemur 15.5459 -55.475 -21.6222
ltibia -4.43606
lfoot -64.5179 59.028
ltoes 32.2385
1153
root 0.606153 17.494 9.74903 11.4271 -8.39278 -9.75277
lowerback -2.59316 2.39029 6.48831
upperback -8.37924 3.39438 1.6148
thorax -7.06917 1.31579 -2.03283
lowerneck -13.2152 -3.56163 -1.70083
upperneck 31.2508 -7.15294 6.99419
head 12.974 -2.49153 1.92474
rclavicle -8.10048e-015 -2.26615e-014
rhumerus 13.4784 41.7524 -61.0807
rradius 119.013
rwrist 4.73367
rhand 29.6314 -34.4253
rfingers 7.12502
rthumb 53.3752 -53.6772
lclavicle -8.10048e-015 -2.26615e-014
lhumerus -41.9603 -22.8359 98.6858
lradius 127.592
lwrist 16.343
lhand -8.53698 -3.38452
lfingers 7.12502
lthumb 17.3921 25.8574
rfemur -3.81251 24.7409 25.3371
rtibia 1.46094
rfoot -12.8933 -20.9764
rtoes 0.183564
lfemur 15.4179 -55.4393 -21.47
ltibia -4.43199
lfoot -64.2564 59.0465
ltoes 32.0905
1154
root 0.602576 17.4951 9.74737 11.4182 -8.18788 -9.7828
lowerback -2.60321 2.33095 6.4166
upperback -8.37955 3.31365 1.62161
thorax -7.07332 1.28075 -1.98369
lowerneck -13.184 -3.63061 -1.73578
upperneck 31.2304 -7.2695 7.07087
head 12.9713 -2.53887 1.94283
rclavicle 1.61016e-014 -3.10104e-014
rhumerus 12.1344 41.0066 -62.1902
rradius 119.039
rwrist 5.55573
rhand 27.9273 -33.0738
rfingers 7.12502
rthumb 51.8342 -53.2775
lclavicle 1.61016e-014 -3.10104e-014
lhumerus -41.9888 -22.7862 98.9079
lradius 127.599
lwrist 16.2301
lhand -8.58376 -3.33692
lfingers 7.12502
lthumb 17.3471 25.909
rfemur -3.76112 24.715 25.4212
rtibia 1.41523
rfoot -12.9413 -21.1249
rtoes 0.460736
lfemur 15.3875 -55.5838 -21.376
ltibia -4.42814
lfoot -64.1912 59.0995
ltoes 31.981
1155
root 0.597841 17.4967 9.74762 11.4077 -7.85973 -9.83271
lowerback -2.65156 2.23847 6.31076
upperback -8.38088 3.18648 1.65682
thorax -7.06281 1.22656 -1.88313
lowerneck -13.0444 -3.71502 -1.79003
upperneck 31.1203 -7.4016 7.17111
head 12.9106 -2.59768 1.97122
rclavicle -4.22417e-015 4.53229e-014
rhumerus 9.79027 40.079 -63.7465
rradius 119.226
rwrist 6.90622
rhand 25.6687 -31.2368
rfingers 7.12502
rthumb 49.7744 -52.5772
lclavicle -4.22417e-015 4.53229e-014
lhumerus -41.9966 -22.7134 99.1457
lradius 127.596
lwrist 16.1013
lhand -8.5973 -3.25942
lfingers 7.12502
lthumb 17.334 25.9876
rfemur -3.69162 24.6493 25.5531
rtibia 1.37256
rfoot -13.0467 -21.3558
rtoes 0.647635
lfemur 15.382 -55.8759 -21.2732
ltibia -4.40816
lfoot -64.0092 59.2506
ltoes 31.7889
1156
root 0.590899 17.498 9.74928 11.3729 -7.41498 -9.86822
lowerback -2.67227 2.12271 6.16504
upperback -8.40594 3.03019 1.66782
thorax -7.09575 1.15796 -1.78669
lowerneck -12.9966 -3.83081 -2.06502
upperneck 31.1273 -7.60396 7.48521
head 12.9442 -2.68065 2.11123
rclavicle -3.36443e-014 -1.59028e-015
rhumerus 7.33261 39.0962 -65.2383
rradius 119.609
rwrist 8.12482
rhand 23.2354 -29.9809
rfingers 7.12502
rthumb 47.5363 -52.4072
lclavicle -3.36443e-014 -1.59028e-015
lhumerus -41.9976 -22.7286 99.3168
lradius 127.532
lwrist 15.9893
lhand -8.59159 -3.15244
lfingers 7.12502
lthumb 17.3395 26.0941
rfemur -3.57611 24.5898 25.7033
rtibia 1.32236
rfoot -13.2066 -21.6945
rtoes 0.851412
lfemur 15.2034 -55.9858 -20.9936
ltibia -4.39517
lfoot -63.1013 59.3881
ltoes 31.4081
1157
root 0.582945 17.4985 9.74999 11.3103 -6.91218 -9.86842
lowerback -2.67829 1.9851 5.94354
upperback -8.40375 2.84361 1.68251
thorax -7.11128 1.08059 -1.64367
lowerneck -13.0654 -3.97276 -2.39986
upperneck 31.1693 -7.8211 7.76347
head 13.0207 -2.7776 2.24429
rclavicle 1.02374e-014 -1.70955e-014
rhumerus 5.07541 38.0829 -66.5303
rradius 119.997
rwrist 9.25326
rhand 20.4666 -29.0314
rfingers 7.12502
rthumb 44.9695 -52.543
lclavicle 1.02374e-014 -1.70955e-014
lhumerus -41.8809 -22.7819 99.4448
lradius 127.337
lwrist 15.866
lhand -8.61852 -3.26594
lfingers 7.12502
lthumb 17.3136 25.9829
rfemur -3.45264 24.5426 25.8296
rtibia 1.30778
rfoot -13.3989 -22.0744
rtoes 1.13561
lfemur 14.9685 -56.013 -20.6866
ltibia -4.3865
lfoot -62.0566 59.4201
ltoes 30.9589
1158
root 0.573576 17.4979 9.74943 11.2535 -6.36449 -9.88001
lowerback -2.81385 1.81077 5.59771
upperback -8.29446 2.59636 1.80718
thorax -6.94661 0.992066 -1.30922
lowerneck -13.1268 -4.1037 -2.60116
upperneck 31.048 -7.95772 7.79545
head 13.0026 -2.85896 2.26677
rclavicle 6.60959e-015 2.14687e-014
rhumerus 2.9304 37.0612 -67.6172
rradius 120.262
rwrist 10.6461
rhand 17.4981 -27.7931
rfingers 7.12502
rthumb 42.1976 -52.3166
lclavicle 6.60959e-015 2.14687e-014
lhumerus -41.5362 -22.7069 99.5934
lradius 127.084
lwrist 15.7076
lhand -8.58847 -3.48021
lfingers 7.12502
lthumb 17.3425 25.7661
rfemur -3.37494 24.4091 25.9705
rtibia 1.35701
rfoot -13.5993 -22.4079
rtoes 1.41801
lfemur 14.8276 -56.1939 -20.4214
ltibia -4.43208
lfoot -61.3439 59.4775
ltoes 30.5048
1159
root 0.563668 17.4965 9.74911 11.1797 -5.75322 -9.92231
lowerback -2.92432 1.61767 5.27303
upperback -8.19011 2.3286 1.94955
thorax -6.80013 0.891002 -0.969343
lowerneck -13.0772 -4.21202 -2.66721
upperneck 30.8482 -8.0674 7.76224
head 12.9166 -2.92594 2.24486
rclavicle -1.42628e-014 1.27222e-014
rhumerus 0.739863 36.0696 -68.7038
rradius 120.5
rwrist 12.1764
rhand 14.8403 -26.8226
rfingers 7.12502
rthumb 39.7013 -52.1381
lclavicle -1.42628e-014 1.27222e-014
lhumerus -41.2632 -22.6414 99.7321
lradius 126.926
lwrist 15.5292
lhand -8.51249 -3.42994
lfingers 7.12502
lthumb 17.4157 25.8099
rfemur -3.24406 24.2634 26.1751
rtibia 1.36107
rfoot -13.8249 -22.8007
rtoes 1.73148
lfemur 14.5484 -56.161 -19.9463
ltibia -4.53835
lfoot -59.9567 59.5557
ltoes 29.8087
1160
root 0.555624 17.4955 9.7491 11.059 -5.14292 -9.9728
lowerback -2.71417 1.49981 5.21612
upperback -8.27321 2.18869 1.9008
thorax -7.01852 0.817504 -0.99152
lowerneck -12.8368 -4.36863 -2.74893
upperneck 30.7544 -8.32144 7.92547
head 12.8575 -3.03677 2.28584
rclavicle -1.81888e-014 1.78906e-014
rhumerus -1.99131 35.0335 -70.1462
rradius 120.835
rwrist 13.5129
rhand 12.6845 -26.2346
rfingers 7.12502
rthumb 37.6679 -52.1235
lclavicle -1.81888e-014 1.78906e-014
lhumerus -41.3607 -22.8962 99.846
lradius 126.832
lwrist 15.4432
lhand -8.52582 -3.45916
lfingers 7.12502
lthumb 17.4028 25.7818
rfemur -3.04405 24.0982 26.3996
rtibia 1.32553
rfoot -14.0452 -23.1744
rtoes 2.07949
lfemur 14.3399 -56.1487 -19.5514
ltibia -4.5986
lfoot -58.5175 59.6342
ltoes 29.0837
1161
root 0.548569 17.4942 9.75038 10.9233 -4.61015 -10.0142
lowerback -2.49545 1.38867 5.16341
upperback -8.35008 2.05803 1.86414
thorax -7.2355 0.748963 -1.00273
lowerneck -12.5794 -4.45796 -2.77351
upperneck 30.6694 -8.45073 7.96624
head 12.7799 -3.10176 2.28942
rclavicle -3.37934e-015 1.51076e-014
rhumerus -4.72416 34.1377 -71.4619
rradius 121.233
rwrist 14.4649
rhand 11.2136 -25.4495
rfingers 7.12502
rthumb 36.2765 -51.6976
lclavicle -3.37934e-015 1.51076e-014
lhumerus -41.4673 -23.1082 99.9363
lradius 126.721
lwrist 15.4432
lhand -8.62797 -3.71257
lfingers 7.12502
lthumb 17.3045 25.537
rfemur -2.85737 23.8769 26.5943
rtibia 1.32852
rfoot -14.2087 -23.43
rtoes 2.33595
lfemur 14.3259 -56.3189 -19.3995
ltibia -4.58511
lfoot -57.6882 59.6611
ltoes 28.6205
1162
root 0.543096 17.4929 9.75297 10.83 -4.17346 -10.0144
lowerback -2.55859 1.21006 4.8751
upperback -8.2691 1.8138 2.00681
thorax -7.13357 0.655894 -0.683445
lowerneck -12.6198 -4.51504 -3.09445
upperneck 30.6433 -8.43818 7.93991
head 12.7892 -3.13635 2.33524
rclavicle -2.32578e-014 2.50469e-014
rhumerus -5.33257 34.1567 -71.3344
rradius 121.504
rwrist 14.8999
rhand 10.2459 -25.6902
rfingers 7.12502
rthumb 35.3595 -52.1615
lclavicle -2.32578e-014 2.50469e-014
lhumerus -41.3563 -22.9609 99.9915
lradius 126.657
lwrist 15.4257
lhand -8.71334 -3.80569
lfingers 7.12502
lthumb 17.2224 25.4511
rfemur -2.73548 23.6665 26.707
rtibia 1.35794
rfoot -14.331 -23.6202
rtoes 2.50102
lfemur 14.2624 -56.4388 -19.2918
ltibia -4.53596
lfoot -56.9246 59.6723
ltoes 28.1466
1163
root 0.538216 17.492 9.75456 10.7821 -3.83575 -10.0619
lowerback -2.67077 1.08704 4.66853
upperback -8.17799 1.64123 2.13783
thorax -6.98484 0.592987 -0.42375
lowerneck -12.712 -4.53632 -3.19109
upperneck 30.6786 -8.40081 7.80328
head 12.8169 -3.14439 2.30344
rclavicle -7.90169e-015 -1.66979e-014
rhumerus -6.51774 33.8218 -71.7356
rradius 121.631
rwrist 16.0972
rhand 9.42027 -24.8879
rfingers 7.12502
rthumb 34.5763 -51.5418
lclavicle -7.90169e-015 -1.66979e-014
lhumerus -41.2367 -22.8622 99.9943
lradius 126.6
lwrist 15.4553
lhand -8.61531 -3.72249
lfingers 7.12502
lthumb 17.3167 25.5261
rfemur -2.67525 23.5347 26.8435
rtibia 1.39983
rfoot -14.4546 -23.7781
rtoes 2.64172
lfemur 14.1617 -56.5227 -19.0936
ltibia -4.51889
lfoot -56.241 59.7325
ltoes 27.5948
